<svg width="64" height="64" viewBox="0 0 64 64" fill="none" xmlns="http://www.w3.org/2000/svg">
  <rect width="64" height="64" rx="16" fill="#1e293b"/>
  
  <!-- Connections (Hidden to Output) -->
  <line x1="36" y1="20" x2="48" y2="32" stroke="#3b82f6" stroke-width="2" opacity="0.6"/>
  <line x1="36" y1="32" x2="48" y2="32" stroke="#3b82f6" stroke-width="4" opacity="0.8"/>
  <line x1="36" y1="44" x2="48" y2="32" stroke="#ef4444" stroke-width="2" opacity="0.4"/>
  
  <!-- Connections (Input to Hidden) -->
  <line x1="16" y1="20" x2="32" y2="20" stroke="#10b981" stroke-width="1.5" opacity="0.5"/>
  <line x1="16" y1="32" x2="32" y2="20" stroke="#10b981" stroke-width="1.5" opacity="0.5"/>
  <line x1="16" y1="44" x2="32" y2="20" stroke="#10b981" stroke-width="1.5" opacity="0.5"/>
  
  <line x1="16" y1="20" x2="32" y2="32" stroke="#3b82f6" stroke-width="3" opacity="0.7"/>
  <line x1="16" y1="32" x2="32" y2="32" stroke="#3b82f6" stroke-width="3" opacity="0.7"/>
  <line x1="16" y1="44" x2="32" y2="32" stroke="#3b82f6" stroke-width="3" opacity="0.7"/>
  
  <line x1="16" y1="20" x2="32" y2="44" stroke="#10b981" stroke-width="1.5" opacity="0.5"/>
  <line x1="16" y1="32" x2="32" y2="44" stroke="#10b981" stroke-width="1.5" opacity="0.5"/>
  <line x1="16" y1="44" x2="32" y2="44" stroke="#10b981" stroke-width="1.5" opacity="0.5"/>

  <!-- Output Layer -->
  <circle cx="50" cy="32" r="6" fill="#3b82f6"/>
  
  <!-- Hidden Layer -->
  <circle cx="34" cy="20" r="4.5" fill="#3b82f6" opacity="0.8"/>
  <circle cx="34" cy="32" r="5" fill="#3b82f6"/>
  <circle cx="34" cy="44" r="4.5" fill="#3b82f6" opacity="0.8"/>
  
  <!-- Input Layer (Pixels style) -->
  <rect x="14" y="18" width="4" height="4" rx="1" fill="#cbd5e1"/>
  <rect x="14" y="30" width="4" height="4" rx="1" fill="#cbd5e1"/>
  <rect x="14" y="42" width="4" height="4" rx="1" fill="#cbd5e1"/>
  
</svg>
